<?xml version="1.0" encoding="UTF-8"?>
<svg id="Capa_1" data-name="Capa 1" xmlns="http://www.w3.org/2000/svg" viewBox="0 0 2000 2000">
  <defs>
    <style>
      .cls-1 {
        fill: #fff;
      }

      .cls-2 {
        fill: #f62929;
      }
    </style>
  </defs>
  <rect width="2000" height="2000"/>
  <g>
    <path class="cls-1" d="M193.14,1075.4c0-371.06,290.16-607.71,737.22-607.71,367.7,0,641.23,164.93,718.23,428.52,10.26,35.13-13.11,71.28-46.05,71.28h-305.14c-17.11,0-32.49-10.46-41.66-26.67-46.75-82.6-169.43-132.36-325.38-132.36-210.87,0-349.21,104.13-349.21,266.94s138.34,265.04,349.21,265.04c155.94,0,278.63-49.76,325.38-132.36,9.17-16.21,24.55-26.67,41.66-26.67h305.03c32.97,0,56.38,36.22,46.03,71.35-77.18,262.11-350.61,428.45-718.1,428.45-447.05,0-737.22-238.54-737.22-605.82Z"/>
    <path class="cls-2" d="M1445.02,467.92c0-91.06,71.62-149.14,180.92-149.14s180.92,58.08,180.92,149.14-71.62,148.67-180.92,148.67-180.92-58.54-180.92-148.67Z"/>
  </g>
</svg>