<svg width="1487" height="147" viewBox="0 0 1487 147" fill="none" xmlns="http://www.w3.org/2000/svg">
<g clip-path="url(#clip0_62_262)">
<path d="M0 90.57C0 46.58 34.4 18.53 87.4 18.53C130.99 18.53 163.42 38.08 172.55 69.33C173.77 73.49 171 77.78 167.09 77.78H130.92C128.89 77.78 127.07 76.54 125.98 74.62C120.44 64.83 105.89 58.93 87.41 58.93C62.41 58.93 46.01 71.27 46.01 90.58C46.01 109.89 62.41 122 87.41 122C105.9 122 120.44 116.1 125.98 106.31C127.07 104.39 128.89 103.15 130.92 103.15H167.08C170.99 103.15 173.76 107.44 172.54 111.61C163.39 142.68 130.97 162.4 87.41 162.4C34.4 162.39 0 134.11 0 90.57Z" fill="white"/>
<path d="M183.14 81.32C183.14 31.67 222.2 0 281.8 0C341.4 0 380.45 31.67 380.45 81.32C380.45 130.97 341.39 162.39 281.8 162.39C222.21 162.39 183.15 130.47 183.15 81.32H183.14ZM328.08 81.32C328.08 59.53 309.79 45.6 281.8 45.6C253.81 45.6 235.52 59.53 235.52 81.32C235.52 103.11 253.81 116.79 281.8 116.79C309.79 116.79 328.08 102.86 328.08 81.32Z" fill="white"/>
<path d="M389.6 117.28C389.6 80.25 425.4 70.82 458.2 70.82C474.61 70.82 490.23 73.04 503.67 76.04C508.51 77.12 512.3 71.23 509.75 66.5C504.6 56.98 492.83 54.43 476.4 54.43C456.09 54.43 437 57.35 410.87 63.92C407.67 64.72 404.52 62.38 403.95 58.76L400.36 35.85C399.82 32.42 401.81 29.14 404.84 28.42C429.5 22.6 455.96 18.52 485.2 18.52C534.8 18.52 558.8 37.6 558.8 87.65V151.46C558.8 155.02 556.23 157.9 553.06 157.9H518.34C515.17 157.9 512.6 155.02 512.6 151.46V151.06C512.6 146.22 508.02 143.12 504.2 145.37C484.69 156.82 462.26 162.61 445.01 162.61C413.81 162.61 389.61 149.14 389.61 117.27L389.6 117.28ZM460.4 128.05C474.29 128.05 495.35 123.12 508.59 118.36C510.97 117.5 512.6 115.03 512.6 112.22V110.73C512.6 107.53 510.52 104.82 507.7 104.36C493.74 102.06 478.39 99.55 464.8 99.55C446.6 99.55 437.6 103.37 437.6 115.04C437.6 122.67 444.6 128.06 460.4 128.06V128.05Z" fill="white"/>
<path d="M677.93 66.71C644.94 66.71 626.41 83.19 626.41 115.9V168.72C626.41 172.74 623.51 176 619.93 176H580.7C577.12 176 574.22 172.74 574.22 168.72V30.88C574.22 26.86 577.12 23.6 580.7 23.6H619.93C623.51 23.6 626.41 26.86 626.41 30.88V39.69C626.41 46 633.09 49.33 637.25 45.07C652.9 29.06 673.89 18.53 703.69 18.53C744.36 18.53 772.38 38.56 772.38 94.35V168.73C772.38 172.75 769.48 176.01 765.9 176.01H726.44C722.86 176.01 719.96 172.75 719.96 168.73V116.67C719.96 82.69 709.57 66.72 677.93 66.72V66.71Z" fill="white"/>
<path d="M784.6 90.57C784.6 46.58 818.8 18.52 871.8 18.52C924.8 18.52 957.67 44.75 960.41 92.91C960.62 96.62 957.99 99.77 954.68 99.77H840.15C835.56 99.77 832.84 105.52 835.38 109.81C842.09 121.15 855.76 126.25 875 126.25C892.06 126.25 907.09 121.34 913.33 112.74C914.43 111.22 916.06 110.31 917.81 110.31H951.22C955.42 110.31 958.19 115.2 956.43 119.47C944.6 148.17 918.84 162.58 871.81 162.38C818.81 162.38 784.61 133.88 784.61 90.56L784.6 90.57ZM901.4 75.31C906.94 75.31 909.23 67.42 904.81 63.68C897.61 57.6 887.1 54.89 874 54.89C859.62 54.89 848.61 57.67 841.26 63.71C836.8 67.37 839.17 75.32 844.7 75.32H901.4V75.31Z" fill="white"/>
<path d="M974.41 192.78V166.61C974.41 162.27 977.87 158.95 981.69 159.62C1018.72 166.06 1038.84 168.45 1060.12 168.45C1097.04 168.45 1109.79 159.32 1109.79 137.13C1109.79 131.15 1103.6 127.87 1099.48 131.67C1086.71 143.45 1068.95 149.95 1047.59 149.95C1000.78 149.95 970.23 120.85 970.23 74.97C970.23 29.09 1000.78 0 1047.59 0C1068.94 0 1086.69 6.64 1099.46 18.48C1103.57 22.29 1109.78 19.02 1109.78 13.03V11.51C1109.78 7.6 1112.6 4.43 1116.09 4.43H1154.24C1157.72 4.43 1160.55 7.6 1160.55 11.51V137.86C1160.55 187.68 1133.3 210.86 1069.12 210.86C1040.25 210.86 1012.58 207.28 979.46 199.71C976.52 199.04 974.4 196.14 974.4 192.77L974.41 192.78ZM1021.88 74.98C1021.88 93.72 1037.26 105.56 1063.86 105.56C1088.72 105.56 1105.01 97.12 1109.47 82.98C1109.7 82.26 1109.79 81.5 1109.79 80.74V69.25C1109.79 68.48 1109.7 67.7 1109.46 66.97C1104.98 53.06 1088.7 44.4 1063.86 44.4C1037.27 44.4 1021.88 56.73 1021.88 74.98Z" fill="white"/>
<path d="M1182.13 23.02H1216.85C1220.02 23.02 1222.59 25.9 1222.59 29.46V32.2C1222.59 38.05 1229.02 40.91 1232.53 36.59C1242.91 23.78 1255.38 18.54 1271.19 18.54C1281.02 18.54 1288.39 20.1 1296.8 23.82C1298.97 24.78 1300.38 27.17 1300.38 29.79V61.41C1300.38 65.75 1296.64 68.82 1292.94 67.56C1283.95 64.5 1277.17 63.65 1269.38 63.65C1256.12 63.65 1239.24 67.92 1223.76 90.19C1222.99 91.3 1222.58 92.69 1222.58 94.11V151.48C1222.58 155.04 1220.01 157.92 1216.84 157.92H1182.12C1178.95 157.92 1176.38 155.04 1176.38 151.48V29.46C1176.38 25.9 1178.95 23.02 1182.12 23.02H1182.13Z" fill="white"/>
<path d="M1301.74 126.45C1301.74 85.98 1340.86 75.68 1376.71 75.68C1394.65 75.68 1411.72 78.11 1426.4 81.39C1431.69 82.57 1435.84 76.13 1433.04 70.96C1427.42 60.56 1414.55 57.77 1396.6 57.77C1374.41 57.77 1353.54 60.96 1324.99 68.14C1321.49 69.02 1318.05 66.46 1317.43 62.5L1313.5 37.47C1312.91 33.72 1315.08 30.14 1318.4 29.35C1345.35 22.99 1374.27 18.53 1406.22 18.53C1460.43 18.53 1486.65 39.38 1486.65 94.08V163.82C1486.65 167.71 1483.84 170.86 1480.38 170.86H1442.43C1438.97 170.86 1436.16 167.71 1436.16 163.82V163.39C1436.16 158.1 1431.16 154.71 1426.97 157.17C1405.65 169.68 1381.14 176.02 1362.28 176.02C1328.18 176.02 1301.74 161.3 1301.74 126.47V126.45ZM1379.11 138.23C1394.3 138.23 1417.31 132.84 1431.78 127.64C1434.39 126.7 1436.16 124 1436.16 120.93V119.3C1436.16 115.81 1433.88 112.84 1430.8 112.34C1415.54 109.83 1398.77 107.09 1383.92 107.09C1364.03 107.09 1354.19 111.26 1354.19 124.01C1354.19 132.35 1361.84 138.24 1379.11 138.24V138.23Z" fill="white"/>
</g>
<defs>
<clipPath id="clip0_62_262">
<rect width="1487" height="147" fill="white"/>
</clipPath>
</defs>
</svg>
